<svg xmlns="http://www.w3.org/2000/svg" width="31" height="31" viewBox="0 0 31 31">
  <g id="gear" transform="translate(-0.195 0.114)">
    <rect id="Rectangle_39" data-name="Rectangle 39" width="31" height="31" transform="translate(0.195 -0.114)" fill="none"/>
    <circle id="Ellipse_29" data-name="Ellipse 29" cx="5.753" cy="5.753" r="5.753" transform="translate(9.535 9.619)" fill="none" stroke="#fff" stroke-linecap="round" stroke-linejoin="round" stroke-width="1.8"/>
    <path id="Path_52" data-name="Path 52" d="M39.718,30.283l-2.262-1.7a.958.958,0,0,0-.86-.149,12.386,12.386,0,0,0-2.031.84.959.959,0,0,0-.5.715l-.4,2.8q-.229.2-.448.421t-.422.448h0l-2.8.4a.958.958,0,0,0-.714.5,12.387,12.387,0,0,0-.842,2.03.959.959,0,0,0,.149.862l1.7,2.262q-.018.3-.018.615t.018.615h0l-1.7,2.262a.958.958,0,0,0-.149.86,12.387,12.387,0,0,0,.84,2.031.959.959,0,0,0,.715.5l2.8.4q.2.229.421.448t.448.422h0l.4,2.8a.958.958,0,0,0,.5.714,12.387,12.387,0,0,0,2.03.842.959.959,0,0,0,.862-.149l2.262-1.7q.3.018.615.018t.615-.018h0l2.262,1.7a.958.958,0,0,0,.86.149,12.386,12.386,0,0,0,2.031-.84.959.959,0,0,0,.5-.715l.4-2.8q.229-.2.448-.421T47.873,47h0l2.8-.4a.958.958,0,0,0,.714-.5,12.387,12.387,0,0,0,.842-2.03.959.959,0,0,0-.149-.862l-1.7-2.262q.018-.3.018-.615t-.018-.615h0l1.7-2.262a.958.958,0,0,0,.149-.86,12.387,12.387,0,0,0-.84-2.031.959.959,0,0,0-.715-.5l-2.8-.4q-.2-.229-.421-.448T47,32.792h0l-.4-2.8a.958.958,0,0,0-.5-.714,12.387,12.387,0,0,0-2.03-.842.959.959,0,0,0-.862.149l-2.262,1.7q-.3-.018-.614-.018t-.615.018Z" transform="translate(-25.045 -24.961)" fill="none" stroke="#fff" stroke-linecap="round" stroke-linejoin="round" stroke-width="1.8"/>
  </g>
</svg>
