<svg xmlns="http://www.w3.org/2000/svg" width="24.274" height="24.274" viewBox="0 0 24.274 24.274">
  <path id="eye-low-vision" d="M24.951,23.391,2.883,1.323a1.1,1.1,0,1,0-1.56,1.56L6.437,8A18.757,18.757,0,0,0,2.1,13.137c4.3,7.263,10.478,9.394,15.885,6.412l5.4,5.4a1.1,1.1,0,1,0,1.56-1.56ZM13.137,16.447a3.29,3.29,0,0,1-2.979-4.729l4.4,4.4a3.279,3.279,0,0,1-1.419.331Zm1.7-6.291,3.327-3.327A12.878,12.878,0,0,1,19.7,7.861l-3.577,3.577Zm2.453,2.453,3.653-3.654a17.554,17.554,0,0,1,1.228,1.335l-3.6,3.6ZM11.214,6.533l-.728-.728a9.64,9.64,0,0,1,1.8-.342Zm2.453,2.452L12.385,7.7,14.547,5.54a9.892,9.892,0,0,1,2.03.534Zm6.074,6.074,3.441-3.441c.338.482.67.982.989,1.519a20.866,20.866,0,0,1-2.707,3.647Z" transform="translate(-1 -1)" fill="#fff"/>
</svg>
