<svg id="accessibility" xmlns="http://www.w3.org/2000/svg" width="34.614" height="34.614" viewBox="0 0 34.614 34.614">
  <path id="Path_50" data-name="Path 50" d="M0,0H34.614V34.614H0Z" fill="none"/>
  <path id="Path_51" data-name="Path 51" d="M28.5,9.2a1.5,1.5,0,0,0-1.788-1.082,51.118,51.118,0,0,1-10.831,1.1,51.118,51.118,0,0,1-10.831-1.1,1.492,1.492,0,0,0-.707,2.9A55.045,55.045,0,0,0,11.557,12.1V29.4a1.442,1.442,0,0,0,2.884,0V22.191h2.884V29.4a1.442,1.442,0,1,0,2.884,0V12.1a54.468,54.468,0,0,0,7.2-1.082A1.489,1.489,0,0,0,28.5,9.2ZM15.884,7.769A2.884,2.884,0,1,0,13,4.884,2.893,2.893,0,0,0,15.884,7.769Z" transform="translate(1.423 0.884)" fill="#fff"/>
</svg>
