<svg id="Group_13" data-name="Group 13" xmlns="http://www.w3.org/2000/svg" xmlns:xlink="http://www.w3.org/1999/xlink" width="23.576" height="27.628" viewBox="0 0 23.576 27.628">
  <defs>
    <clipPath id="clip-path">
      <rect id="Rectangle_11" data-name="Rectangle 11" width="23.576" height="27.628" fill="#fff"/>
    </clipPath>
  </defs>
  <g id="Group_12" data-name="Group 12" clip-path="url(#clip-path)">
    <path id="Path_33" data-name="Path 33" d="M19.424,22.256H16.662l-4.052-7h-8.1L3.4,4.574A1.4,1.4,0,0,1,4.505,3.1,1.4,1.4,0,0,1,5.979,4.205L6.9,12.494h7.183l4.052,7h1.289a1.259,1.259,0,0,1,1.289,1.289,1.314,1.314,0,0,1-1.289,1.474" transform="translate(2.862 2.61)" fill="#fff"/>
    <path id="Path_34" data-name="Path 34" d="M9.946,23.2A9.9,9.9,0,0,1,0,13.253,9.518,9.518,0,0,1,3.684,5.517,1.417,1.417,0,0,1,5.526,5.7a1.417,1.417,0,0,1-.184,1.842,6.667,6.667,0,0,0-2.763,5.71,7.389,7.389,0,0,0,7.368,7.368,7.074,7.074,0,0,0,4.6-1.658,1.309,1.309,0,0,1,1.658,2.026A10,10,0,0,1,9.946,23.2" transform="translate(0 4.429)" fill="#fff"/>
    <path id="Path_35" data-name="Path 35" d="M5.31,0A2.21,2.21,0,1,1,3.1,2.21,2.21,2.21,0,0,1,5.31,0" transform="translate(2.61)" fill="#fff"/>
    <path id="Path_36" data-name="Path 36" d="M11.168,6.971H5.089A1.259,1.259,0,0,1,3.8,5.681,1.259,1.259,0,0,1,5.089,4.392h6.078a1.259,1.259,0,0,1,1.289,1.289,1.259,1.259,0,0,1-1.289,1.289" transform="translate(3.199 3.698)" fill="#fff"/>
    <path id="Path_37" data-name="Path 37" d="M11.772,8.374H6.856a.969.969,0,0,1,0-1.938h4.916a.969.969,0,0,1,0,1.938" transform="translate(4.956 5.418)" fill="#fff"/>
    <path id="Path_38" data-name="Path 38" d="M12.712,5.59,10.38,9.817A.969.969,0,1,1,8.7,8.856L11.03,4.629a.969.969,0,1,1,1.682.961" transform="translate(7.208 3.479)" fill="#fff"/>
  </g>
</svg>
