<svg xmlns="http://www.w3.org/2000/svg" width="26" height="24.143" viewBox="0 0 26 24.143">
  <path id="list" d="M3.315,289.327A2.786,2.786,0,1,0,6.1,292.113a2.8,2.8,0,0,0-2.786-2.786Zm0,1.857a.929.929,0,1,1-.929.929A.915.915,0,0,1,3.315,291.184Zm4.643,0v1.857H26.529v-1.857Zm-4.643,7.429A2.786,2.786,0,1,0,6.1,301.4a2.8,2.8,0,0,0-2.786-2.786Zm0,1.857a.929.929,0,1,1-.929.929A.915.915,0,0,1,3.315,300.47Zm4.643,0v1.857H26.529V300.47ZM3.315,307.9A2.786,2.786,0,1,0,6.1,310.684,2.8,2.8,0,0,0,3.315,307.9Zm0,1.857a.929.929,0,1,1-.929.929A.915.915,0,0,1,3.315,309.756Zm4.643,0v1.857H26.529v-1.857Z" transform="translate(-0.529 -289.327)" fill="#fff"/>
</svg>
