<svg xmlns="http://www.w3.org/2000/svg" width="24.213" height="24.143" viewBox="0 0 24.213 24.143">
  <g id="UI_Web_All_Mail_Drive_Archive" data-name="UI, Web, All Mail, Drive, Archive" transform="translate(0)">
    <path id="Path_53" data-name="Path 53" d="M20.857,9.777a.929.929,0,0,0,0-.706.669.669,0,0,0-.2-.3l-3.324-3.25a.919.919,0,1,0-1.3,1.3L17.681,8.5H6.929a.929.929,0,1,0,0,1.857H17.681l-1.653,1.671a.919.919,0,1,0,1.3,1.3l3.25-3.25a.669.669,0,0,0,.279-.3Z" transform="translate(3.286 2.647)" fill="#fff"/>
    <path id="Path_54" data-name="Path 54" d="M16.786,17.714a.929.929,0,0,0-.929.929V20.5a2.786,2.786,0,0,1-2.786,2.786H5.643A2.786,2.786,0,0,1,2.857,20.5V5.643A2.786,2.786,0,0,1,5.643,2.857h7.429a2.786,2.786,0,0,1,2.786,2.786V7.5a.929.929,0,0,0,1.857,0V5.643A4.643,4.643,0,0,0,13.071,1H5.643A4.643,4.643,0,0,0,1,5.643V20.5a4.643,4.643,0,0,0,4.643,4.643h7.429A4.643,4.643,0,0,0,17.714,20.5V18.643A.929.929,0,0,0,16.786,17.714Z" transform="translate(-1 -1)" fill="#fff"/>
  </g>
</svg>
