<svg xmlns="http://www.w3.org/2000/svg" width="24" height="24" viewBox="0 0 24 24">
  <g id="Group_54" data-name="Group 54" transform="translate(-1186 -578)">
    <g id="Ellipse_28" data-name="Ellipse 28" transform="translate(1186 578)" fill="#cf2050" stroke="#cf2050" stroke-width="1">
      <circle cx="12" cy="12" r="12" stroke="none"/>
      <circle cx="12" cy="12" r="11.5" fill="none"/>
    </g>
    <g id="Icon_feather-trash-2" data-name="Icon feather-trash-2" transform="translate(1188.213 581.903)">
      <path id="Path_46" data-name="Path 46" d="M4.5,9H14.574" transform="translate(0 -3.761)" fill="none" stroke="#fff" stroke-linecap="round" stroke-linejoin="round" stroke-width="1.5"/>
      <path id="Path_47" data-name="Path 47" d="M15.336,5.239v7.836a1.119,1.119,0,0,1-1.119,1.119h-5.6A1.119,1.119,0,0,1,7.5,13.074V5.239m1.679,0V4.119A1.119,1.119,0,0,1,10.3,3h2.239a1.119,1.119,0,0,1,1.119,1.119V5.239" transform="translate(-1.881)" fill="none" stroke="#fff" stroke-linecap="round" stroke-linejoin="round" stroke-width="1.5"/>
      <path id="Path_48" data-name="Path 48" d="M15,16.5v3.358" transform="translate(-6.582 -8.463)" fill="none" stroke="#fff" stroke-linecap="round" stroke-linejoin="round" stroke-width="1.5"/>
      <path id="Path_49" data-name="Path 49" d="M21,16.5v3.358" transform="translate(-10.343 -8.463)" fill="none" stroke="#fff" stroke-linecap="round" stroke-linejoin="round" stroke-width="1.5"/>
    </g>
  </g>
</svg>
