<svg xmlns="http://www.w3.org/2000/svg" width="25.331" height="24.143" viewBox="0 0 25.331 24.143">
  <path id="user" d="M29.029,31.557a6.779,6.779,0,1,0-6.76-6.8A6.761,6.761,0,0,0,29.029,31.557Zm0-11.774A4.977,4.977,0,1,1,24.051,24.8,4.977,4.977,0,0,1,29.029,19.783ZM17.291,42.143H40.84a.9.9,0,0,0,.891-.891,8.528,8.528,0,0,0-8.506-8.506h-8.32A8.528,8.528,0,0,0,16.4,41.251.9.9,0,0,0,17.291,42.143Zm7.614-7.614h8.32a6.7,6.7,0,0,1,6.649,5.831H18.257A6.7,6.7,0,0,1,24.906,34.529Z" transform="translate(-16.4 -18)" fill="#fff"/>
</svg>
